# xmcd CD database file generated by OrangeCD 6.2
#
# Track frame offsets:
#	150
#	10968
#	23398
#	37201
#	49941
#	60926
#	70811
#	83601
#	96820
#	108559
#	121347
#	132725
#	145443
#	155238
#	168972
#	178771
#	190801
#	203543
#
# Disc length: 2919 seconds
#
# Revision: 3
# Processed by: cddbd v1.5.2PL0 Copyright (c) Steve Scherf et al.
# Submitted via: OrangeCD 6.2
#
DISCID=f90b6512
DTITLE=Howlin' Wolf - The Collection
DYEAR=2000
DGENRE=Blues
TTITLE0=Wang Dang Doodle
TTITLE1=Spoonful
TTITLE2=Smokestack Lightnin'
TTITLE3=Back Door Man
TTITLE4=The Little Red Rooster
TTITLE5=Do The Do
TTITLE6=I Ain't Superstitious
TTITLE7=Tail Dragger
TTITLE8=Built For Comfort
TTITLE9=Evil
TTITLE10=Sittin' On Top Of The World
TTITLE11=I Asked For Water (She Gave Me Gasoline)
TTITLE12=The Natchez Burning
TTITLE13=Three Hundred Pounds Of Joy
TTITLE14=Down In The Bottom
TTITLE15=How Many More Years
TTITLE16=Killing Floor
TTITLE17=Going Down Slow
EXTD=
EXTT0=
EXTT1=Recorded in 1960. It was included on the Chess CD "Howlin' Wolf" (re-issu
EXTT1=ed on the MCA/Chess "Two On One"CD with another LP, "Moanin' In The Moonl
EXTT1=ight").
EXTT2=
EXTT3=
EXTT4=Recorded 1961. It was included on the Chess CD "Howlin' Wolf" (re-issued 
EXTT4=on the MCA/Chess "Two On One" CDwith another LP, "Moanin' In The Moonligh
EXTT4=t").
EXTT5=
EXTT6=
EXTT7=This is from the "alternate take" that's on theCD box "Ain't gonna be you
EXTT7=r dog". Recorded September 18, 1962.
EXTT8=
EXTT9=
EXTT10=
EXTT11=
EXTT12=
EXTT13=
EXTT14=
EXTT15=
EXTT16=
EXTT17=Recorded in 1961 and included on the Chess CD "Howlin' Wolf" (re-issued 
EXTT17=on the MCA/Chess "Two On One" CDwith another LP, "Moanin' In The Moonlig
EXTT17=ht").
PLAYORDER=
